# xmcd
#
# Track frame offsets:
#  150
#  16088
#  33575
#  54227
#  68142
#  82635
#  102074
#  119959
#  138226
#  156939
#  172979
#
# Disc length: 2553 seconds
#
# Revision: 0
# Processed by: cddbd v1.4PL0 Copyright (c) Steve Scherf et al.
# Submitted via: AltoMP3_Maker 3.0
#
DISCID=8209f70b
DTITLE=Anthony Smith - If That Ain't Country (advance music)
DYEAR=1900
DGENRE=
TTITLE0=Who Invented The Wheel
TTITLE1=If That Ain't Country
TTITLE2=Impossible To Do
TTITLE3=Half A Man
TTITLE4=Metropolis
TTITLE5=Up To The Depth
TTITLE6=Airborn
TTITLE7=What Brothers Do
TTITLE8=Hell of a Question
TTITLE9=Venus
TTITLE10=Infinity
EXTD=
EXTT0=
EXTT1=
EXTT2=
EXTT3=
EXTT4=
EXTT5=
EXTT6=
EXTT7=
EXTT8=
EXTT9=
EXTT10=
PLAYORDER=
